<?xml version="1.0" encoding="UTF-8"?><svg id="Layer_1" xmlns="http://www.w3.org/2000/svg" viewBox="0 0 128 128"><defs><style>.cls-1{fill:#003a70;stroke-width:0px;}</style></defs><path class="cls-1" d="M103.16,121.62h-23.9v-11.06h22.86V17.14h11.06v94.87c0,5.3-4.49,9.61-10.02,9.61Z"/><rect class="cls-1" x="32.08" y="111.15" width="9.88" height="9.88" rx="1.97" ry="1.97" transform="translate(74.04 232.17) rotate(180)"/><rect class="cls-1" x="19.56" y="111.88" width="8.42" height="8.42" rx="1.68" ry="1.68" transform="translate(47.53 232.17) rotate(180)"/><rect class="cls-1" x="46.59" y="110.5" width="11.17" height="11.17" rx="2.23" ry="2.23" transform="translate(104.34 232.17) rotate(180)"/><rect class="cls-1" x="62.38" y="110.06" width="12.05" height="12.05" rx="2.41" ry="2.41" transform="translate(136.81 232.17) rotate(180)"/><path class="cls-1" d="M92.01,24h-7.95c-.7,0-1.26.57-1.26,1.26v7.95c0,.7.57,1.26,1.26,1.26h7.95c.7,0,1.26-.57,1.26-1.26v-7.95c0-.7-.57-1.26-1.26-1.26h0Z"/><path class="cls-1" d="M79.4,33.2h-10.25c-.82,0-1.49.66-1.49,1.49v10.25c0,.82.66,1.49,1.49,1.49h10.25c.82,0,1.49-.66,1.49-1.49v-10.25c0-.82-.66-1.49-1.49-1.49h0Z"/><path class="cls-1" d="M79.54,18.3h-10.54c-.69,0-1.26.56-1.26,1.26v10.54c0,.69.56,1.26,1.26,1.26h10.54c.69,0,1.26-.56,1.26-1.26v-10.54c0-.69-.56-1.26-1.26-1.26h0Z"/><path class="cls-1" d="M88.7,75.24h-18.56c-1.37,0-2.48-1.11-2.48-2.48v-18.56c0-1.37,1.11-2.48,2.48-2.48h18.56c1.37,0,2.48,1.11,2.48,2.48v18.56c0,1.37-1.11,2.48-2.48,2.48h0Z"/><rect class="cls-1" x="36.57" y="75.42" width=".02" height=".02"/><path class="cls-1" d="M57.31,28.58h-18.05c-1.49,0-2.69,1.2-2.69,2.69v20.74H15.85c-1.49,0-2.69,1.2-2.69,2.69v18.08c0,1.47,1.2,2.67,2.69,2.67h20.72v-.02h.02v.02h-.02v20.74c0,1.47,1.2,2.67,2.69,2.67h18.05c1.49,0,2.69-1.2,2.69-2.67V31.27c0-1.49-1.2-2.69-2.69-2.69ZM53.82,88.16h-10.26v-35.38h10.26v35.38ZM53.36,46.18c-1.18,1.12-2.74,1.68-4.67,1.68s-3.49-.55-4.67-1.64c-1.18-1.1-1.77-2.45-1.77-4.08s.59-2.98,1.77-4.08c1.18-1.1,2.74-1.64,4.67-1.64s3.43.52,4.64,1.55c1.2,1.03,1.81,2.36,1.81,3.98,0,1.71-.59,3.12-1.78,4.24Z"/></svg>