<?xml version="1.0" encoding="UTF-8"?><svg id="Layer_1" xmlns="http://www.w3.org/2000/svg" viewBox="0 0 128 128"><defs><style>.cls-1{fill:#003a70;stroke-width:0px;}</style></defs><path class="cls-1" d="M85.23,93.01c1,1.15.88,2.9-.27,3.9-.53.45-1.17.67-1.82.67-.77,0-1.54-.32-2.08-.95l-24.59-28.31-24.59,28.31c-.55.63-1.32.95-2.09.95-.64,0-1.29-.22-1.81-.67-1.15-1-1.28-2.75-.28-3.9l25.11-28.9-25.11-28.9c-1-1.15-.87-2.9.28-3.9,1.15-1,2.9-.88,3.9.28l24.59,28.31,24.59-28.31c1-1.16,2.75-1.28,3.9-.28s1.27,2.75.27,3.9l-25.1,28.9,25.1,28.9Z"/><path class="cls-1" d="M101.88,121.59h-23.9v-11.06h22.86V17.12h11.06v94.87c0,5.3-4.49,9.61-10.02,9.61Z"/><rect class="cls-1" x="30.8" y="111.12" width="9.88" height="9.88" rx="1.97" ry="1.97" transform="translate(71.47 232.12) rotate(180)"/><rect class="cls-1" x="18.27" y="111.85" width="8.42" height="8.42" rx="1.68" ry="1.68" transform="translate(44.96 232.12) rotate(180)"/><rect class="cls-1" x="45.3" y="110.48" width="11.17" height="11.17" rx="2.23" ry="2.23" transform="translate(101.76 232.12) rotate(180)"/><rect class="cls-1" x="61.09" y="110.03" width="12.05" height="12.05" rx="2.41" ry="2.41" transform="translate(134.24 232.12) rotate(180)"/></svg>