<?xml version="1.0" encoding="UTF-8"?><svg id="Layer_1" xmlns="http://www.w3.org/2000/svg" viewBox="0 0 128 128"><defs><style>.cls-1{fill:#003a70;stroke-width:0px;}</style></defs><path class="cls-1" d="M73.37,94.22c-1.05,0-2.06-.61-2.52-1.63l-19.29-42.88-19.29,42.88c-.63,1.39-2.26,2.01-3.66,1.39-1.39-.63-2.01-2.26-1.39-3.66l21.82-48.48c.45-.99,1.43-1.63,2.52-1.63s2.08.64,2.52,1.63l21.82,48.48c.63,1.39,0,3.03-1.39,3.66-.37.17-.75.24-1.13.24Z"/><path class="cls-1" d="M93.56,92.81c-1.06,0-2.07-.61-2.53-1.64l-22.13-49.5-1.98,4.39c-.63,1.39-2.26,2.01-3.66,1.39-1.39-.63-2.01-2.26-1.39-3.66l4.51-10.01c.45-.99,1.43-1.63,2.52-1.63h0c1.09,0,2.08.64,2.52,1.64l24.65,55.13c.62,1.39,0,3.03-1.4,3.65-.37.16-.75.24-1.13.24Z"/><path class="cls-1" d="M105.2,121.42h-23.9v-11.06h22.86V16.94h11.06v94.87c0,5.3-4.49,9.61-10.02,9.61Z"/><rect class="cls-1" x="34.12" y="110.95" width="9.88" height="9.88" rx="1.97" ry="1.97" transform="translate(78.11 231.77) rotate(180)"/><rect class="cls-1" x="21.59" y="111.68" width="8.42" height="8.42" rx="1.68" ry="1.68" transform="translate(51.6 231.77) rotate(180)"/><rect class="cls-1" x="19.29" y="20.73" width="17.17" height="17.17" rx="7.26" ry="7.26" transform="translate(55.75 58.62) rotate(180)"/><rect class="cls-1" x="48.62" y="110.3" width="11.17" height="11.17" rx="2.23" ry="2.23" transform="translate(108.41 231.77) rotate(180)"/><rect class="cls-1" x="64.41" y="109.86" width="12.05" height="12.05" rx="2.41" ry="2.41" transform="translate(140.88 231.77) rotate(180)"/></svg>