<?xml version="1.0" encoding="UTF-8"?><svg id="Layer_1" xmlns="http://www.w3.org/2000/svg" viewBox="0 0 128 128"><defs><style>.cls-1{fill:#003a70;stroke-width:0px;}</style></defs><path class="cls-1" d="M102.96,121.62h-23.9v-11.06h22.86V17.14h11.06v94.87c0,5.3-4.49,9.61-10.02,9.61Z"/><rect class="cls-1" x="31.87" y="111.15" width="9.88" height="9.88" rx="1.97" ry="1.97" transform="translate(73.62 232.17) rotate(180)"/><rect class="cls-1" x="19.35" y="111.88" width="8.42" height="8.42" rx="1.68" ry="1.68" transform="translate(47.11 232.17) rotate(180)"/><rect class="cls-1" x="46.38" y="110.5" width="11.17" height="11.17" rx="2.23" ry="2.23" transform="translate(103.92 232.17) rotate(180)"/><rect class="cls-1" x="62.17" y="110.06" width="12.05" height="12.05" rx="2.41" ry="2.41" transform="translate(136.39 232.17) rotate(180)"/><path class="cls-1" d="M72.06,42.42c-10.57,0-19.46,7.32-21.87,17.16-6.11,4.02-10.15,10.94-10.15,18.79,0,12.42,10.1,22.52,22.52,22.52,10.56,0,19.45-7.31,21.86-17.15,6.11-4.03,10.15-10.95,10.15-18.8,0-12.42-10.1-22.52-22.51-22.52ZM55.18,63.08c2.23-1.09,4.73-1.69,7.38-1.69,9.36,0,16.98,7.62,16.98,16.98,0,.63-.03,1.25-.11,1.86-2.23,1.08-4.73,1.69-7.37,1.69-9.37,0-16.99-7.62-16.99-16.98,0-.63.03-1.25.11-1.86ZM62.56,95.36c-9.37,0-16.99-7.62-16.99-16.99,0-4.21,1.54-8.07,4.1-11.04,1.19,11.29,10.78,20.12,22.39,20.12,1.79,0,3.54-.21,5.21-.62-2.93,5.1-8.43,8.53-14.71,8.53ZM84.94,75.98c-1.19-11.29-10.78-20.12-22.38-20.12-1.8,0-3.55.21-5.23.62,2.94-5.09,8.44-8.53,14.73-8.53,9.36,0,16.98,7.62,16.98,16.99,0,4.21-1.55,8.07-4.1,11.04Z"/><path class="cls-1" d="M74.2,26.21l-6.65,8.21c-.53.65-1.31,1.02-2.15,1.02s-1.62-.37-2.15-1.02l-6.65-8.21c-.96-1.18-.78-2.92.4-3.89,1.19-.96,2.93-.77,3.89.41l1.75,2.16v-13.51c0-1.53,1.23-2.76,2.76-2.76s2.77,1.23,2.77,2.76v13.5l1.74-2.15c.96-1.18,2.7-1.37,3.89-.41,1.18.97,1.37,2.71.4,3.89Z"/><path class="cls-1" d="M36.97,64.94c0,.83-.37,1.62-1.02,2.14l-8.21,6.66c-.51.41-1.13.62-1.74.62-.8,0-1.6-.35-2.15-1.03-.96-1.18-.78-2.92.41-3.89l2.15-1.74h-13.5c-1.53,0-2.77-1.24-2.77-2.76s1.24-2.77,2.77-2.77h13.5l-2.15-1.74c-1.19-.96-1.37-2.71-.41-3.89.96-1.19,2.71-1.37,3.89-.41l8.21,6.66c.65.52,1.02,1.31,1.02,2.15Z"/></svg>