<?xml version="1.0" encoding="UTF-8"?><svg id="Layer_1" xmlns="http://www.w3.org/2000/svg" viewBox="0 0 128 128"><defs><style>.cls-1{fill:#003a70;stroke-width:0px;}</style></defs><path class="cls-1" d="M100.3,121.2h-23.91v-11.06h22.86V16.72h11.06v94.87c0,5.3-4.49,9.61-10.02,9.61Z"/><rect class="cls-1" x="29.22" y="110.73" width="9.88" height="9.88" rx="1.97" ry="1.97" transform="translate(68.31 231.33) rotate(180)"/><rect class="cls-1" x="16.69" y="111.46" width="8.42" height="8.42" rx="1.68" ry="1.68" transform="translate(41.79 231.33) rotate(180)"/><rect class="cls-1" x="43.72" y="110.08" width="11.17" height="11.17" rx="2.23" ry="2.23" transform="translate(98.6 231.33) rotate(180)"/><rect class="cls-1" x="59.51" y="109.64" width="12.05" height="12.05" rx="2.41" ry="2.41" transform="translate(131.08 231.33) rotate(180)"/><path class="cls-1" d="M82.47,95.2H23.6c-1.53,0-2.76-1.24-2.76-2.76V26.63c0-1.53,1.24-2.76,2.76-2.76h45.58c.76,0,1.5.32,2.02.88l13.28,14.19c.48.51.75,1.19.75,1.89v51.62c0,1.53-1.24,2.76-2.76,2.76ZM26.36,89.67h53.34v-47.76l-11.72-12.52H26.36v60.28Z"/><path class="cls-1" d="M37.22,86.51c-1.53,0-2.76-1.24-2.76-2.76v-20.21c0-1.53,1.24-2.76,2.76-2.76h30.1c.74,0,1.44.29,1.96.81.52.52.81,1.23.81,1.96l-.08,20.21c0,1.53-1.24,2.73-2.78,2.75-1.53,0-2.76-1.25-2.75-2.78l.07-17.44h-24.56v17.45c0,1.53-1.24,2.76-2.76,2.76Z"/><path class="cls-1" d="M57.81,46.45h-20.6c-.74,0-1.44-.29-1.96-.82-.52-.52-.81-1.23-.8-1.97l.05-8.62c0-1.52,1.25-2.75,2.76-2.75h.02c1.53,0,2.76,1.26,2.75,2.78l-.04,5.84h15.05v-5.86c0-1.53,1.24-2.76,2.76-2.76s2.76,1.24,2.76,2.76v8.62c0,1.53-1.24,2.76-2.76,2.76Z"/></svg>