<?xml version="1.0" encoding="UTF-8"?><svg id="Layer_1" xmlns="http://www.w3.org/2000/svg" viewBox="0 0 128 128"><defs><style>.cls-1{fill:#003a70;stroke-width:0px;}</style></defs><path class="cls-1" d="M101.57,121.83h-23.9v-11.06h22.86V17.35h11.06v94.87c0,5.3-4.49,9.61-10.02,9.61Z"/><rect class="cls-1" x="30.48" y="111.36" width="9.88" height="9.88" rx="1.97" ry="1.97" transform="translate(70.84 232.59) rotate(180)"/><rect class="cls-1" x="17.96" y="112.09" width="8.42" height="8.42" rx="1.68" ry="1.68" transform="translate(44.33 232.59) rotate(180)"/><rect class="cls-1" x="44.99" y="110.71" width="11.17" height="11.17" rx="2.23" ry="2.23" transform="translate(101.14 232.59) rotate(180)"/><rect class="cls-1" x="60.78" y="110.27" width="12.05" height="12.05" rx="2.41" ry="2.41" transform="translate(133.61 232.59) rotate(180)"/><path class="cls-1" d="M86.81,68.66l-3.03-1.79c.34-1.69.53-3.44.53-5.21s-.17-3.45-.49-5.09l3-1.78c.82-.5,1.1-1.55.6-2.37l-7.2-12.15c-.48-.82-1.53-1.08-2.35-.6l-3.13,1.86c-2.38-1.96-5.12-3.5-8.11-4.5v-4.43c0-.94-.77-1.72-1.73-1.72h-14.11c-.96,0-1.73.77-1.73,1.72v4.75c-2.79,1.05-5.35,2.58-7.58,4.49l-3.65-2.17c-.82-.48-1.87-.22-2.35.6l-7.2,12.15c-.48.82-.22,1.87.6,2.37l3.84,2.26c-.28,1.5-.42,3.03-.42,4.61s.15,3.19.43,4.72l-3.85,2.29c-.82.48-1.08,1.53-.6,2.35l7.2,12.15c.48.82,1.53,1.1,2.35.62l3.76-2.23c2.21,1.87,4.74,3.37,7.47,4.41v3.56c0,.96.77,1.73,1.73,1.73h14.11c.96,0,1.73-.77,1.73-1.73v-3.23c2.94-.99,5.65-2.49,8.02-4.41l3.22,1.9c.82.48,1.87.2,2.35-.62l7.2-12.15c.5-.82.22-1.87-.6-2.35ZM58.31,73.26c-6.41,0-11.62-5.2-11.62-11.61s5.21-11.62,11.62-11.62,11.61,5.21,11.61,11.62-5.21,11.61-11.61,11.61Z"/></svg>